<?xml version="1.0" standalone="no"?><!DOCTYPE svg PUBLIC "-//W3C//DTD SVG 1.1//EN" "http://www.w3.org/Graphics/SVG/1.1/DTD/svg11.dtd"><svg t="1521425505115" class="icon" style="" viewBox="0 0 1024 1024" version="1.1" xmlns="http://www.w3.org/2000/svg" p-id="4558" xmlns:xlink="http://www.w3.org/1999/xlink" width="200" height="200"><defs><style type="text/css"></style></defs><path d="M937.9 533.5H105.1c-11.2 0-20.3-9.1-20.3-20.3 0-11.2 9.1-20.3 20.3-20.3h832.8c11.2 0 20.3 9.1 20.3 20.3 0 11.2-9.1 20.3-20.3 20.3z" fill="#FF7878" p-id="4559"></path><path d="M450.4 939.8c-5.6 0-11.1-2.3-15.1-6.7L69.7 526.8c-7-7.7-7-19.5 0-27.2L435.3 93.4c7.5-8.4 20.4-9 28.7-1.5s9 20.4 1.5 28.7L112.1 513.2l353.4 392.6c7.5 8.3 6.8 21.2-1.5 28.7-3.9 3.5-8.8 5.3-13.6 5.3z" fill="#FF7878" p-id="4560"></path></svg>